<svg width="22" height="23" viewBox="0 0 22 23" fill="none" xmlns="http://www.w3.org/2000/svg">
    <path d="M10.627 4.181A2.011 2.011 0 0 0 8.56 2.695c-.634.04-.883.657-.765 1.097l.574 2.143c.118.439.642.85 1.211.567a2.011 2.011 0 0 0 1.047-2.32z" fill="#E0FFB5" stroke="#0BAA78" stroke-width="1.248"/>
    <path fill-rule="evenodd" clip-rule="evenodd" d="M12.634 4.736c-.57.152-1.029.514-1.316.981a2.211 2.211 0 0 0-1.63-.192c-.571.153-1.03.515-1.316.982a2.219 2.219 0 0 0-3.237 2.36 2.22 2.22 0 1 0 3.1 3.022c.481.261 1.06.345 1.63.192a2.211 2.211 0 0 0 1.316-.981c.482.26 1.06.345 1.631.192a2.211 2.211 0 0 0 1.316-.982 2.219 2.219 0 1 0 1.174-4.167 2.219 2.219 0 0 0-2.668-1.407z" fill="#E0FFB5"/>
    <path d="m11.318 5.717-.33.61.578.312.343-.559-.59-.363zm1.316-.981-.179-.67.18.67zm-2.946.79-.18-.67.18.67zm-1.316.98-.33.61.577.313.343-.56-.59-.362zM6.74 6.316l-.18-.67.18.67zM5.135 8.867l.377.582.39-.254-.086-.456-.681.128zM4.2 11.302l.67-.18-.67.18zm4.034.587.33-.61-.577-.312-.344.56.59.362zm2.947-.79.33-.609-.578-.313-.343.56.59.363zm2.946-.789.33-.61-.577-.312-.344.56.591.362zm1.174-4.167-.654.23.153.438.464.024.037-.692zm-3.393-.063c.198-.322.512-.57.905-.675l-.359-1.34c-.749.201-1.352.678-1.727 1.29l1.181.725zm-2.042.115c.393-.105.79-.048 1.121.132l.66-1.22a2.905 2.905 0 0 0-2.14-.252l.36 1.34zm-.905.675c.198-.322.513-.57.905-.675l-.359-1.34c-.748.201-1.351.677-1.727 1.289l1.181.726zm-2.042.114c.393-.105.79-.047 1.121.132l.66-1.219a2.904 2.904 0 0 0-2.14-.252l.36 1.34zM5.816 8.74A1.526 1.526 0 0 1 6.92 6.984l-.358-1.34a2.912 2.912 0 0 0-2.109 3.352l1.363-.257zm-.945 2.384a1.526 1.526 0 0 1 .641-1.674l-.755-1.163a2.913 2.913 0 0 0-1.225 3.196l1.339-.36zM6.739 12.2a1.525 1.525 0 0 1-1.868-1.078l-1.34.359a2.912 2.912 0 0 0 3.567 2.059l-.359-1.34zm.905-.675c-.198.322-.512.57-.905.675l.359 1.34a2.904 2.904 0 0 0 1.728-1.289l-1.182-.726zm2.042-.114c-.393.105-.79.047-1.121-.132l-.66 1.219a2.905 2.905 0 0 0 2.14.252l-.36-1.34zm.905-.675c-.198.321-.512.57-.905.675l.359 1.339a2.905 2.905 0 0 0 1.727-1.288l-1.181-.726zm2.042-.115c-.393.105-.79.048-1.121-.132l-.66 1.22a2.905 2.905 0 0 0 2.14.251l-.36-1.339zm.904-.675c-.197.322-.512.57-.904.675l.359 1.34a2.904 2.904 0 0 0 1.727-1.289l-1.182-.726zm2.042-.115c-.392.106-.789.048-1.12-.132l-.661 1.22a2.905 2.905 0 0 0 2.14.252l-.359-1.34zm1.079-1.868a1.525 1.525 0 0 1-1.079 1.868l.36 1.34a2.912 2.912 0 0 0 2.058-3.567l-1.339.36zm-1.393-1.129a1.526 1.526 0 0 1 1.393 1.13l1.34-.36a2.913 2.913 0 0 0-2.66-2.155l-.073 1.385zm-2.451-1.43a1.525 1.525 0 0 1 1.834.967l1.308-.458a2.912 2.912 0 0 0-3.501-1.848l.359 1.34z" fill="#0BAA78"/>
    <path fill-rule="evenodd" clip-rule="evenodd" d="M14.793 17.914a2.215 2.215 0 0 1-1.47 1.28 2.215 2.215 0 0 1-1.913-.374 2.22 2.22 0 0 1-2.845-.994 2.22 2.22 0 0 1-2.294-2.09 2.219 2.219 0 1 1 1.894-4.006 2.211 2.211 0 0 1 1.316-.982 2.211 2.211 0 0 1 1.63.193 2.211 2.211 0 0 1 1.317-.982 2.211 2.211 0 0 1 1.63.192 2.219 2.219 0 1 1 3.643 2.522 2.22 2.22 0 0 1-.941 2.958 2.22 2.22 0 0 1-1.967 2.283z" fill="#9DE89F"/>
    <path d="m14.793 17.914-.079-.69-.402.047-.157.373.638.27zm-3.383.906.418-.553-.323-.244-.37.161.275.636zm-2.845-.993.612-.325-.203-.384-.434.016.025.693zM6.27 15.736l.692-.04-.025-.437-.405-.165-.262.642zm1.894-4.006-.33.61.577.313.344-.56-.59-.363zm2.947-.79-.33.61.577.313.344-.56-.591-.363zm2.947-.79-.33.61.577.313.343-.56-.59-.362zm3.643 2.523-.548-.425-.268.346.196.39.62-.311zm-.941 2.958-.325-.613-.384.204.016.434.693-.025zm-2.606 2.013c-.178.42-.539.754-1.011.88l.359 1.34a2.908 2.908 0 0 0 1.929-1.68l-1.277-.54zm-1.011.88a1.522 1.522 0 0 1-1.316-.257l-.836 1.106c.69.522 1.608.733 2.51.49l-.358-1.339zm-2.01-.34a1.53 1.53 0 0 1-.215.075l.36 1.34c.14-.038.276-.086.407-.143l-.552-1.272zm-.215.075a1.526 1.526 0 0 1-1.742-.757l-1.225.65a2.913 2.913 0 0 0 3.326 1.446l-.359-1.34zm-2.38-1.125a1.526 1.526 0 0 1-1.526-1.13l-1.34.359A2.913 2.913 0 0 0 8.59 18.52l-.05-1.386zm-1.526-1.13a1.535 1.535 0 0 1-.05-.309l-1.384.081c.011.195.043.392.095.587l1.34-.36zm-.48-.91a1.522 1.522 0 0 1-.898-1.018l-1.34.359c.246.915.902 1.61 1.714 1.943l.524-1.284zm-.898-1.018a1.525 1.525 0 0 1 1.079-1.868l-.359-1.34a2.912 2.912 0 0 0-2.06 3.567l1.34-.359zm1.079-1.868c.393-.105.789-.048 1.12.132l.661-1.22a2.904 2.904 0 0 0-2.14-.252l.359 1.34zm2.042-.115c.197-.322.512-.57.905-.675l-.36-1.34c-.748.201-1.351.678-1.727 1.29l1.182.725zm.905-.675c.392-.105.789-.048 1.12.132l.661-1.22a2.904 2.904 0 0 0-2.14-.251l.359 1.34zm2.042-.115c.197-.321.512-.57.904-.674l-.358-1.34c-.75.2-1.352.677-1.728 1.289l1.182.725zm.904-.674c.393-.106.79-.048 1.121.132l.66-1.22a2.904 2.904 0 0 0-2.14-.252l.36 1.34zm2.042-.115c.198-.322.513-.57.905-.675l-.359-1.34c-.748.201-1.351.677-1.727 1.289l1.181.726zm.905-.675a1.525 1.525 0 0 1 1.868 1.079l1.34-.36A2.912 2.912 0 0 0 15.195 8.5l.36 1.339zm1.868 1.079c.129.478.015.965-.268 1.33l1.096.85a2.909 2.909 0 0 0 .512-2.54l-1.34.36zm-.34 2.066c.046.091.083.189.11.292l1.34-.359a2.92 2.92 0 0 0-.21-.555l-1.24.622zm.11.292a1.526 1.526 0 0 1-.756 1.742l.65 1.225a2.913 2.913 0 0 0 1.446-3.326l-1.34.36zm-1.124 2.38a1.526 1.526 0 0 1-1.13 1.526l.359 1.34a2.913 2.913 0 0 0 2.157-2.916l-1.386.05zm-1.13 1.526c-.075.02-.15.034-.224.043l.158 1.377c.142-.016.284-.043.425-.08l-.36-1.34z" fill="#0BAA78"/>
</svg>
