<svg width="25" height="25" viewBox="0 0 149 160" fill="none" xmlns="http://www.w3.org/2000/svg">
    <path d="M69.843 26.999c-1.819-6.788-8.157-11.146-14.906-10.721l.282 4.49-.282-4.49c-4.57.287-6.366 4.744-5.517 7.91l4.14 15.456c.85 3.167 4.633 6.128 8.734 4.093 6.058-3.008 9.368-9.951 7.549-16.738z" fill="#E0FFB5" stroke="#0BAA78" stroke-width="9"/>
    <path fill-rule="evenodd" clip-rule="evenodd" d="M103.556 41.145c6.733.355 12.768 4.975 14.608 11.84 2.287 8.536-2.778 17.31-11.314 19.596a15.945 15.945 0 0 1-11.759-1.384 15.945 15.945 0 0 1-9.491 7.078 15.945 15.945 0 0 1-11.76-1.384 15.945 15.945 0 0 1-9.49 7.078 15.945 15.945 0 0 1-11.76-1.384 15.945 15.945 0 0 1-9.491 7.078c-8.535 2.288-17.309-2.778-19.596-11.313-1.84-6.865 1.077-13.884 6.73-17.559-1.538-8.147 3.446-16.226 11.585-18.407a15.945 15.945 0 0 1 11.76 1.385 15.945 15.945 0 0 1 9.49-7.08 15.945 15.945 0 0 1 11.76 1.386 15.945 15.945 0 0 1 9.491-7.08c8.14-2.18 16.496 2.325 19.237 10.15z" fill="#E0FFB5"/>
    <path d="m103.556 41.145-4.72 1.653 1.109 3.163 3.347.177.264-4.993zm-8.465 30.052 2.381-4.397-4.163-2.255-2.478 4.035 4.26 2.617zm-21.25 5.694 2.381-4.397-4.164-2.255-2.478 4.035 4.26 2.617zm-21.25 5.694 2.38-4.397-4.163-2.255-2.478 4.035 4.26 2.617zM23.502 78.35l4.83-1.294-4.83 1.294zm6.73-17.559 2.725 4.193 2.81-1.827-.621-3.294-4.913.928zM53.579 43.77l-2.382 4.396 4.164 2.255 2.478-4.035-4.26-2.616zm21.25-5.694-2.381 4.396 4.163 2.255 2.478-4.035-4.26-2.617zm48.165 13.616c-2.416-9.018-10.342-15.073-19.174-15.54l-.527 9.987c4.635.244 8.78 3.43 10.042 8.142l9.659-2.589zm-14.849 25.72c11.203-3.002 17.851-14.517 14.849-25.72l-9.659 2.589c1.573 5.868-1.91 11.9-7.778 13.472l2.588 9.659zM92.71 75.593a20.945 20.945 0 0 0 15.434 1.818l-2.588-9.66c-2.832.76-5.69.345-8.084-.95l-4.762 8.792zm-5.816 7.512a20.945 20.945 0 0 0 12.458-9.291L90.83 68.58a10.946 10.946 0 0 1-6.524 4.866l2.588 9.659zm-15.435-1.818a20.945 20.945 0 0 0 15.435 1.818l-2.588-9.66c-2.832.76-5.691.345-8.084-.95l-4.763 8.792zM65.643 88.8a20.945 20.945 0 0 0 12.458-9.292l-8.52-5.233a10.945 10.945 0 0 1-6.526 4.866l2.589 9.659zM50.21 86.981A20.944 20.944 0 0 0 65.643 88.8l-2.588-9.66c-2.831.76-5.69.345-8.083-.95l-4.763 8.792zm-5.816 7.512a20.945 20.945 0 0 0 12.458-9.291l-8.521-5.234a10.945 10.945 0 0 1-6.525 4.866l2.588 9.66zm-25.72-14.85c3.002 11.204 14.517 17.852 25.72 14.85l-2.588-9.66c-5.868 1.573-11.9-1.91-13.472-7.777l-9.66 2.588zM27.51 56.6c-7.415 4.82-11.252 14.027-8.835 23.045l9.659-2.588c-1.263-4.713.734-9.543 4.625-12.072l-5.45-8.385zm7.638 3.264c-1.057-5.596 2.372-11.15 7.966-12.65l-2.589-9.659C29.84 40.417 23.3 51.021 25.32 61.72l9.827-1.856zm7.966-12.65a10.945 10.945 0 0 1 8.083.952l4.763-8.793a20.945 20.945 0 0 0-15.435-1.818l2.589 9.66zM61.775 31.86a20.945 20.945 0 0 0-12.458 9.292l8.521 5.233a10.945 10.945 0 0 1 6.525-4.866l-2.588-9.659zm15.434 1.818a20.945 20.945 0 0 0-15.434-1.818l2.588 9.66a10.945 10.945 0 0 1 8.084.951l4.762-8.793zm5.816-7.512a20.945 20.945 0 0 0-12.458 9.292l8.522 5.233a10.946 10.946 0 0 1 6.524-4.866l-2.588-9.659zm25.25 13.326c-3.6-10.275-14.564-16.189-25.25-13.326l2.588 9.66c5.594-1.5 11.341 1.597 13.224 6.972l9.438-3.306z" fill="#0BAA78"/>
    <path fill-rule="evenodd" clip-rule="evenodd" d="M38.43 110.325a15.975 15.975 0 0 1-9.414-10.676c-2.287-8.536 2.778-17.31 11.313-19.596a15.945 15.945 0 0 1 11.76 1.385 15.945 15.945 0 0 1 9.49-7.08 15.945 15.945 0 0 1 11.76 1.385 15.945 15.945 0 0 1 9.491-7.078 15.945 15.945 0 0 1 11.76 1.384 15.945 15.945 0 0 1 9.491-7.078c8.535-2.287 17.308 2.778 19.595 11.313a15.972 15.972 0 0 1-2.815 13.953c.481.958.873 1.98 1.161 3.055 1.967 7.342-1.505 14.859-7.946 18.274.263 7.286-4.511 14.052-11.853 16.019a16.04 16.04 0 0 1-2.336.445 15.973 15.973 0 0 1-10.6 9.233 15.974 15.974 0 0 1-13.796-2.696c-.718.312-1.468.574-2.246.783-7.341 1.967-14.859-1.506-18.274-7.947-7.285.264-14.051-4.511-16.019-11.852a16.084 16.084 0 0 1-.522-3.226z" fill="#9DE89F"/>
    <path d="m38.43 110.325 4.992-.292-.184-3.145-2.917-1.192-1.89 4.629zM52.09 81.437l-2.382 4.397 4.164 2.255 2.478-4.035-4.26-2.617zm21.25-5.694-2.382 4.397 4.164 2.255L77.6 78.36l-4.26-2.617zm21.25-5.694-2.381 4.397 4.164 2.255 2.478-4.035-4.26-2.617zm26.272 18.188-3.952-3.063-1.93 2.49 1.414 2.817 4.468-2.244zm-6.785 21.329-2.342-4.418-2.768 1.468.113 3.131 4.997-.181zM99.887 126.03l-.57-4.967-2.898.333-1.137 2.687 4.605 1.947zm-24.396 6.537 3.014-3.989-2.328-1.759-2.676 1.161 1.99 4.587zm-20.52-7.164 4.418-2.342-1.468-2.768-3.13.113.18 4.997zm-30.785-24.46c1.768 6.599 6.497 11.618 12.353 14.01l3.782-9.257a10.974 10.974 0 0 1-6.476-7.341l-9.659 2.588zm14.85-25.72c-11.203 3.002-17.852 14.517-14.85 25.72l9.66-2.588c-1.573-5.869 1.91-11.9 7.778-13.473l-2.589-9.659zm15.434 1.818a20.945 20.945 0 0 0-15.435-1.818l2.589 9.66a10.945 10.945 0 0 1 8.083.95l4.763-8.792zm5.816-7.512a20.944 20.944 0 0 0-12.458 9.292l8.521 5.233a10.945 10.945 0 0 1 6.525-4.866l-2.588-9.659zm15.434 1.818a20.945 20.945 0 0 0-15.434-1.818l2.588 9.66a10.945 10.945 0 0 1 8.083.95l4.763-8.792zm5.816-7.512a20.945 20.945 0 0 0-12.458 9.292L77.6 78.36a10.946 10.946 0 0 1 6.525-4.866l-2.588-9.659zm15.435 1.818a20.945 20.945 0 0 0-15.435-1.818l2.588 9.66a10.945 10.945 0 0 1 8.084.95l4.763-8.792zm5.815-7.512a20.946 20.946 0 0 0-12.457 9.292l8.52 5.233a10.946 10.946 0 0 1 6.526-4.866l-2.589-9.659zm25.72 14.85c-3.002-11.203-14.517-17.852-25.72-14.85l2.589 9.66c5.868-1.573 11.899 1.91 13.472 7.778l9.659-2.589zm-3.693 18.31c3.876-5.001 5.461-11.711 3.693-18.31l-9.659 2.588c.925 3.452.105 6.96-1.938 9.595l7.904 6.126zm2.039-1.303a21.123 21.123 0 0 0-1.522-4.005l-8.937 4.488c.329.656.599 1.359.799 2.105l9.66-2.588zm-10.435 23.986c8.455-4.482 13.018-14.344 10.435-23.986l-9.66 2.588c1.351 5.041-1.03 10.215-5.458 12.562l4.683 8.836zm-7.338-4.237c.181 5.008-3.109 9.658-8.15 11.008l2.588 9.66c9.642-2.584 15.901-11.466 15.555-21.03l-9.993.362zm-8.15 11.008c-.54.145-1.078.247-1.612.308l1.141 9.935a21.29 21.29 0 0 0 3.059-.583l-2.588-9.66zm-10.348 19.337c6.51-1.744 11.481-6.368 13.911-12.114l-9.21-3.895a10.973 10.973 0 0 1-7.289 6.35l2.588 9.659zm-18.105-3.536c4.978 3.762 11.596 5.281 18.105 3.536l-2.588-9.659a10.97 10.97 0 0 1-9.488-1.855l-6.029 7.978zm2.063 1.623a21.054 21.054 0 0 0 2.941-1.025l-3.98-9.174c-.492.214-1.009.395-1.549.54l2.588 9.659zm-23.985-10.434c4.482 8.455 14.343 13.018 23.985 10.434l-2.588-9.659c-5.041 1.351-10.215-1.031-12.562-5.459l-8.835 4.684zm-16.431-12.9c2.583 9.642 11.466 15.901 21.029 15.555l-.361-9.994c-5.009.181-9.658-3.108-11.009-8.15l-9.66 2.589zm-.684-4.229c.082 1.407.307 2.823.684 4.229l9.659-2.589c-.2-.746-.317-1.489-.36-2.223l-9.983.583z" fill="#0BAA78"/>
    <path d="M76.144 77.352c0 6.766-1.538 12.694-3.821 16.79-2.358 4.228-4.98 5.71-6.955 5.71-1.976 0-4.598-1.482-6.955-5.71-2.284-4.096-3.822-10.024-3.822-16.79 0-6.767 1.538-12.695 3.822-16.79 2.357-4.229 4.98-5.71 6.955-5.71 1.975 0 4.597 1.481 6.955 5.71 2.283 4.095 3.821 10.023 3.821 16.79z" fill="#fff" stroke="#0BAA78" stroke-width="8"/>
    <ellipse cx="69.855" cy="72.235" rx="8.769" ry="12.463" fill="#0BAA78"/>
    <path d="M101.324 77.352c0 6.76-1.553 12.682-3.859 16.774-2.376 4.216-5.034 5.726-7.074 5.726s-4.698-1.51-7.074-5.726c-2.306-4.092-3.859-10.015-3.859-16.774 0-6.76 1.553-12.683 3.859-16.775 2.376-4.216 5.034-5.725 7.074-5.725s4.698 1.509 7.074 5.725c2.306 4.092 3.859 10.015 3.859 16.775z" fill="#fff" stroke="#0BAA78" stroke-width="8"/>
    <ellipse cx="94.456" cy="72.235" rx="8.769" ry="12.463" fill="#0BAA78"/>
    <ellipse cx="96.507" cy="68.168" rx="1.05" ry="2.099" fill="#fff"/>
    <ellipse cx="71.319" cy="68.168" rx="1.05" ry="2.099" fill="#fff"/>
</svg>
