<svg width="18" height="19" viewBox="0 0 18 19" fill="none" xmlns="http://www.w3.org/2000/svg">
    <path d="M8.125 14.75s-.875 0-.875-.875.875-3.5 4.375-3.5S16 13 16 13.875s-.875.875-.875.875h-7zm3.5-5.25a2.625 2.625 0 1 0 0-5.25 2.625 2.625 0 0 0 0 5.25z" fill="#fff"/>
    <path fill-rule="evenodd" clip-rule="evenodd" d="M6.564 14.75a1.959 1.959 0 0 1-.189-.875c0-1.186.595-2.406 1.694-3.255a5.534 5.534 0 0 0-1.694-.245C2.875 10.375 2 13 2 13.875s.875.875.875.875h3.689z" fill="#fff"/>
    <path d="M5.938 9.5a2.188 2.188 0 1 0 0-4.375 2.188 2.188 0 0 0 0 4.375z" fill="#fff"/>
</svg>
